<mxfile host="app.diagrams.net" modified="2023-11-02T11:51:24.074Z" agent="Mozilla/5.0 (Macintosh; Intel Mac OS X 10_15_7) AppleWebKit/537.36 (KHTML, like Gecko) Chrome/117.0.0.0 Safari/537.36" etag="ORMVY2QVxXSO1lMA7NSs" version="22.0.8" type="github">
  <diagram name="Page-1" id="ZfQ_LcKXtZ3mdjqVnQix">
    <mxGraphModel dx="1174" dy="679" grid="0" gridSize="10" guides="1" tooltips="1" connect="1" arrows="1" fold="1" page="0" pageScale="1" pageWidth="850" pageHeight="1100" math="0" shadow="0">
      <root>
        <mxCell id="0" />
        <mxCell id="1" parent="0" />
      </root>
    </mxGraphModel>
  </diagram>
</mxfile>
